<mxfile host="app.diagrams.net" modified="2023-10-07T01:05:36.183Z" agent="Mozilla/5.0 (Windows NT 10.0; Win64; x64) AppleWebKit/537.36 (KHTML, like Gecko) Chrome/117.0.0.0 Safari/537.36" version="22.0.0" etag="OmCLM86DNPSWfhaOySdQ" type="github">
  <diagram name="Trang-1" id="fC4mTPGKfEgKC2omUt9f">
    <mxGraphModel>
      <root>
        <mxCell id="0" />
        <mxCell id="1" parent="0" />
      </root>
    </mxGraphModel>
  </diagram>
</mxfile>
